<svg width="971.44041" height="662" xmlns="http://www.w3.org/2000/svg" xmlns:xlink="http://www.w3.org/1999/xlink" data-name="Layer 1">
 <defs>
  <linearGradient y2="0" x2="0.50014" y1="1" x1="0.50014" id="afa9b5ae-644d-481c-a512-b5b81b77e42b">
   <stop stop-opacity="0.25" stop-color="gray" offset="0"/>
   <stop stop-opacity="0.12" stop-color="gray" offset="0.53514"/>
   <stop stop-opacity="0.1" stop-color="gray" offset="1"/>
  </linearGradient>
  <linearGradient xlink:href="#afa9b5ae-644d-481c-a512-b5b81b77e42b" y2="119" x2="600.65162" y1="650.10521" x1="600.65162" id="bf9220ea-365d-417c-960f-9ff5535a2d22"/>
  <linearGradient xlink:href="#afa9b5ae-644d-481c-a512-b5b81b77e42b" y2="377.70425" x2="485.7202" y1="615.59838" x1="485.7202" id="b4202d31-0de8-4369-b735-813ee4300deb"/>
 </defs>
 <title>Designer</title>
 <g>
  <title>Layer 1</title>
  <path id="svg_1" fill="#3f3d56" d="m145.83413,537.80937c-6.98452,26.59789 -31.459,43.21966 -31.459,43.21966s-13.15033,-26.50193 -6.16581,-53.09982s31.459,-43.21966 31.459,-43.21966s13.15033,26.50193 6.16581,53.09982z"/>
  <path id="svg_2" fill="#001c55" d="m135.2402,532.18266c-19.56251,19.32716 -21.75117,48.83128 -21.75117,48.83128s29.52845,-1.83141 49.091,-21.15858s21.75116,-48.83129 21.75116,-48.83129s-29.52851,1.83142 -49.09099,21.15859z"/>
  <rect id="svg_3" fill="#001c55" rx="15.19753" height="45.49618" width="106.91603" y="573.24114" x="68.05348"/>
  <g id="svg_4" opacity="0.7">
   <path id="svg_5" fill="url(#afa9b5ae-644d-481c-a512-b5b81b77e42b)" d="m895.49428,544.17837l0,-16.39381l-81.96908,0l0,75.82144a15.984,15.984 0 0 0 15.984,15.984l50.00113,0a15.984,15.984 0 0 0 15.984,-15.984l0,-16.80371a21.312,21.312 0 0 0 0,-42.62392l-0.00005,0zm0,34.427l0,-26.2301a13.115,13.115 0 0 1 0,26.2301z"/>
  </g>
  <path id="svg_6" fill="#001c55" d="m892.85701,546.74436a19.45875,19.45875 0 1 0 19.45875,19.45874a19.45877,19.45877 0 0 0 -19.45875,-19.45874zm0,31.43336a11.97462,11.97462 0 1 1 11.97461,-11.97462a11.97462,11.97462 0 0 1 -11.97461,11.97462z"/>
  <path id="svg_7" opacity="0.1" d="m892.85701,546.74436a19.45875,19.45875 0 1 0 19.45875,19.45874a19.45877,19.45877 0 0 0 -19.45875,-19.45874zm0,31.43336a11.97462,11.97462 0 1 1 11.97461,-11.97462a11.97462,11.97462 0 0 1 -11.97461,11.97462z"/>
  <path id="svg_8" fill="#001c55" d="m818.01569,531.77609l74.84131,0a0,0 0 0 1 0,0l0,74.07228a9.75,9.75 0 0 1 -9.75,9.75l-55.34131,0a9.75,9.75 0 0 1 -9.75,-9.75l0,-74.07228a0,0 0 0 1 0,0z"/>
  <rect id="svg_9" fill="#e0e0e0" height="32.93018" width="971.44041" y="615.59838"/>
  <g id="svg_10" opacity="0.7">
   <path id="svg_11" fill="url(#bf9220ea-365d-417c-960f-9ff5535a2d22)" d="m638.96946,394.26464c-10.41165,-37.79179 -69.43785,-65.38862 -113.8507,-71.50773c0.006,-0.27882 0.02112,-0.55536 0.02112,-0.83569l0,-32.35022c0.04726,-0.01733 0.09584,-0.03182 0.143,-0.04925l0,-1.22615a110.93933,110.93933 0 0 0 67.01046,-70.2316a119.882,119.882 0 0 0 7.14989,-15.41561c4.74115,-1.72629 8.322,-9.54462 8.322,-18.93884a33.06945,33.06945 0 0 0 -1.3381,-9.49537a121.52779,121.52779 0 0 0 0.88891,-14.41912a120.17944,120.17944 0 0 0 -39.6966,-89.38228a23.44841,23.44841 0 0 0 0.37522,-5.87723c-1.00473,-15.52708 -17.58929,-26.07586 -33.13284,-26.78142a32.8005,32.8005 0 0 0 5.53147,-34.63658c-9.91113,14.43929 -30.25853,15.97418 -47.77168,16.08774c7.55675,-2.9265 10.95734,-13.39715 6.56225,-20.20525c-18.30375,24.53386 -53.985,29.07689 -75.75576,50.59371a63.8633,63.8633 0 0 0 -11.77976,16.06661a120.24089,120.24089 0 0 0 -45.31946,94.1347a121.55587,121.55587 0 0 0 0.87233,14.28918a32.96391,32.96391 0 0 0 -1.38014,9.62531c0,9.43741 3.61453,17.27988 8.38807,18.95778a119.88387,119.88387 0 0 0 7.18266,15.46665a110.91725,110.91725 0 0 0 66.54128,69.98516l0,33.80212c0,0.26025 0.01449,0.51691 0.0196,0.77593c-44.58123,6.01408 -104.079,33.82817 -114.39809,71.92387c-8.91132,32.89854 -18.42365,69.02824 -23.15665,90.24078c40.56827,28.50553 125.69315,45.24341 179.04119,45.24341c50.6869,0 133.53278,-15.10715 172.90663,-41.06339c-4.26491,-23.30786 -14.07735,-61.02406 -23.3763,-94.77722z"/>
  </g>
  <path id="svg_12" fill="#001c55" d="m489.33068,521.72159c48.89581,0 128.8143,-14.57335 166.79676,-39.61233c-4.11411,-22.48424 -13.57985,-58.86769 -22.55024,-91.42816c-11.42431,-41.46766 -83.52767,-70.216 -126.54025,-70.216l-41.4486,0c-43.1459,0 -115.35328,28.91469 -126.6338,70.55985c-8.5964,31.736 -17.77266,66.589 -22.33837,87.05194c39.1347,27.49829 121.25159,43.6447 172.7145,43.6447z"/>
  <circle id="svg_13" fill="#211711" r="116.23581" cy="165.49683" cx="485.8065"/>
  <path id="svg_14" opacity="0.1" d="m449.29134,261.31116l74.47866,0a0,0 0 0 1 0,0l0,59.58294a37.23927,37.23927 0 0 1 -37.23927,37.23927l-0.00007,0a37.23927,37.23927 0 0 1 -37.23927,-37.23927l0,-59.58294a0,0 0 0 1 -0.00005,0z"/>
  <path id="svg_15" fill="#fda57d" d="m459.97433,258.55269l53.11267,0a10.683,10.683 0 0 1 10.683,10.683l0,48.89994a37.23927,37.23927 0 0 1 -37.23927,37.23927l-0.00007,0a37.23927,37.23927 0 0 1 -37.23927,-37.23927l0,-48.89995a10.683,10.683 0 0 1 10.68294,-10.68299z"/>
  <path id="svg_16" opacity="0.1" d="m449.42926,289.43366a107.19075,107.19075 0 0 0 74.47862,0.20587l0,-9.14914l-74.47862,0l0,8.94327z"/>
  <circle id="svg_17" fill="#fda57d" r="106.75269" cy="187.66796" cx="486.8065"/>
  <path id="svg_18" opacity="0.1" d="m410.76633,90.56488s44.98987,91.32263 171.90142,38.27492l-29.54555,-46.3328l-52.37621,-18.80172l-89.97966,26.8596z"/>
  <path id="svg_19" fill="#211711" d="m409.76633,90.2219s44.98982,91.32263 171.90142,38.27492l-29.54555,-46.33282l-52.37622,-18.8017l-89.97965,26.8596z"/>
  <path id="svg_20" fill="#211711" d="m422.36683,71.0522a61.66959,61.66959 0 0 1 15.28543,-24.86262c21.00146,-20.75652 55.42186,-25.13895 73.07881,-48.80594c4.23984,6.56758 0.95939,16.66822 -6.33032,19.49128c16.89431,-0.10957 36.52273,-1.59016 46.08358,-15.51925a31.6415,31.6415 0 0 1 -5.336,33.4127c14.99426,0.68059 30.99283,10.85661 31.962,25.835c0.64565,9.97871 -5.6112,19.42651 -13.81131,25.14924s-18.12112,8.34985 -27.88617,10.50284c-28.50507,6.28476 -131.64649,32.62665 -113.04602,-25.20325z"/>
  <path id="svg_21" fill="#211711" d="m593.55585,186.60241l-2.83022,0l-55.06218,49.01876c-53.0477,-24.84513 -91.99411,0 -91.99411,0l-57.74814,-47.00429l-5.82291,0.73165a106.75011,106.75011 0 0 0 213.45756,-2.74612zm-106.91116,67.82048c-20.76778,0 -37.60344,-4.209 -37.60344,-9.40086s16.83566,-9.40086 37.60344,-9.40086s37.60344,4.20894 37.60344,9.40086s-16.83566,9.40086 -37.60344,9.40086z"/>
  <ellipse id="svg_22" fill="#fda57d" ry="18.61966" rx="9.93048" cy="187.56625" cx="380.01131"/>
  <ellipse id="svg_23" fill="#fda57d" ry="18.61966" rx="9.93048" cy="187.56625" cx="593.54511"/>
  <g id="svg_24" opacity="0.7">
   <rect id="svg_25" fill="url(#b4202d31-0de8-4369-b735-813ee4300deb)" rx="14.5" height="237.89413" width="413.12412" y="377.70425" x="279.15815"/>
  </g>
  <rect id="svg_26" fill="#535461" rx="26.83505" height="233.50494" width="398.15585" y="382.09344" x="286.64228"/>
  <circle id="svg_27" fill="#fff" r="13.47144" cy="498.84591" cx="485.7202"/>
  <rect id="svg_28" fill="#e0e0e0" height="13.47144" width="889.11495" y="648.52856" x="41.16273"/>
  <rect id="svg_29" opacity="0.1" height="4.49048" width="889.11495" y="648.52856" x="41.16273"/>
  <path id="svg_30" opacity="0.1" d="m879.38557,531.77609l0,69.22823a14.59407,14.59407 0 0 1 -14.59405,14.59406l7.48413,0a14.59408,14.59408 0 0 0 14.59406,-14.59406l0,-69.22823l-7.48414,0z"/>
  <path id="svg_31" fill="#eee" d="m832.78463,475.97939c-1.26234,0.216 -2.68649,0.55668 -3.30507,1.67806c-0.98172,1.77969 0.79727,3.7863 2.42071,5.0092c2.99922,2.25925 6.16039,4.47845 8.19907,7.63175s2.67912,7.5539 0.45056,10.576c-2.9099,3.94605 -9.85229,4.79489 -10.52416,9.65158c-0.43133,3.11795 2.26418,5.77847 4.99546,7.343c6.74142,3.86165 15.432,4.89187 20.3151,10.93461c2.02,-4.15378 6.53823,-6.55488 11.04189,-7.58024s9.183,-0.94882 13.7492,-1.6444c1.47405,-0.22454 3.13458,-0.67474 3.79362,-2.01224c1.27644,-2.59048 -2.36152,-5.69737 -1.1059,-8.298c0.95565,-1.97936 3.763,-1.82565 5.81307,-2.61832c3.33807,-1.29069 4.71459,-5.58675 3.76717,-9.038s-3.62359,-6.14839 -6.4377,-8.3597c-7.58411,-5.95952 -16.70353,-9.46426 -25.92726,-11.98516c-4.2899,-1.17245 -9.32574,-3.01108 -13.78142,-3.18882c-4.30137,-0.17155 -9.20703,1.17236 -13.46434,1.90068z"/>
 </g>
</svg>